<?xml version="1.0" standalone="no"?>
<!DOCTYPE svg PUBLIC "-//W3C//DTD SVG 20010904//EN"
 "http://www.w3.org/TR/2001/REC-SVG-20010904/DTD/svg10.dtd">
<svg version="1.0" xmlns="http://www.w3.org/2000/svg"
 width="64.000000pt" height="64.000000pt" viewBox="0 0 64.000000 64.000000"
 preserveAspectRatio="xMidYMid meet">

<g transform="translate(0.000000,64.000000) scale(0.100000,-0.100000)"
fill="#000000" stroke="none">
<path d="M519 498 c0 -2 -2 -14 -3 -27 -2 -13 -17 -36 -35 -50 -17 -14 -31
-32 -31 -38 0 -7 -11 -13 -24 -13 -13 0 -32 -3 -40 -6 -12 -5 -15 -2 -10 10 9
22 -18 21 -48 -4 -14 -10 -28 -17 -31 -14 -3 3 -12 2 -19 -2 -7 -5 -41 -9 -76
-9 -40 0 -55 2 -41 7 23 9 22 26 -4 42 -13 8 -21 5 -37 -12 -11 -12 -27 -22
-35 -22 -22 0 -45 -41 -45 -79 0 -20 -7 -39 -16 -46 -15 -10 -14 -15 5 -53 12
-23 26 -42 32 -42 5 0 17 16 25 35 16 39 25 43 49 19 14 -14 20 -15 40 -4 21
11 28 10 52 -5 15 -10 32 -24 36 -32 7 -12 27 -13 100 -7 100 7 127 16 127 41
0 11 6 14 23 9 12 -3 25 -6 28 -6 4 0 9 -9 12 -20 3 -11 12 -20 21 -20 12 0
16 10 16 38 0 52 -10 82 -26 82 -15 0 -19 37 -6 58 7 9 13 8 27 -8 16 -18 45
-28 45 -15 0 12 -24 55 -32 55 -4 0 -8 20 -8 44 0 26 -6 48 -15 56 -8 7 -15
19 -15 26 0 11 -38 21 -41 12z m39 -35 c14 -31 16 -93 3 -93 -5 0 -14 -21 -20
-46 -11 -44 -10 -47 14 -70 17 -16 25 -33 24 -56 0 -18 -3 -27 -6 -20 -7 18
-62 44 -79 38 -8 -3 -14 -12 -14 -20 0 -17 -21 -24 -85 -30 -22 -2 -52 -7 -67
-11 -22 -6 -35 -1 -60 20 -43 37 -77 49 -95 34 -10 -9 -17 -9 -25 -1 -23 23
-59 14 -71 -18 -14 -37 -20 -37 -35 -5 -16 34 -15 45 3 45 11 0 15 12 15 51 0
48 2 51 34 64 19 8 37 19 41 25 8 13 25 13 25 0 0 -5 -5 -9 -12 -7 -6 1 -13
-5 -15 -14 -3 -13 9 -17 61 -22 36 -3 74 -12 85 -19 11 -7 21 -10 23 -8 2 3
10 18 18 34 16 31 43 48 38 24 -2 -8 5 -12 17 -10 11 1 33 4 48 5 18 1 33 11
40 24 7 12 24 31 40 43 16 13 27 31 27 46 0 32 12 30 28 -3z m43 -130 c13 -16
12 -17 -3 -4 -17 13 -22 21 -14 21 2 0 10 -8 17 -17z"/>
</g>
</svg>
